<svg xmlns="http://www.w3.org/2000/svg" xmlns:xlink="http://www.w3.org/1999/xlink" width="500" zoomAndPan="magnify" viewBox="0 0 375 374.999991" height="500" preserveAspectRatio="xMidYMid meet" version="1.0"><defs><g/><clipPath id="ea621921cd"><path d="M 3.363281 3.363281 L 371.636719 3.363281 L 371.636719 371.636719 L 3.363281 371.636719 Z M 3.363281 3.363281 " clip-rule="nonzero"/></clipPath><clipPath id="98d173f9db"><path d="M 187.5 371.636719 C 138.335938 371.636719 92.046875 352.503906 57.308594 317.691406 C 22.496094 282.953125 3.363281 236.664062 3.363281 187.5 C 3.363281 138.335938 22.496094 92.046875 57.308594 57.308594 C 92.046875 22.496094 138.335938 3.363281 187.5 3.363281 C 236.664062 3.363281 282.953125 22.496094 317.691406 57.308594 C 352.503906 92.121094 371.636719 138.335938 371.636719 187.5 C 371.636719 236.664062 352.503906 282.953125 317.691406 317.691406 C 282.953125 352.503906 236.664062 371.636719 187.5 371.636719 Z M 187.5 14.402344 C 141.28125 14.402344 97.785156 32.433594 65.109375 65.109375 C 32.433594 97.785156 14.402344 141.28125 14.402344 187.5 C 14.402344 233.71875 32.433594 277.214844 65.109375 309.890625 C 97.785156 342.566406 141.28125 360.597656 187.5 360.597656 C 233.71875 360.597656 277.214844 342.566406 309.890625 309.890625 C 342.566406 277.214844 360.597656 233.71875 360.597656 187.5 C 360.597656 141.28125 342.566406 97.785156 309.890625 65.109375 C 277.214844 32.433594 233.71875 14.402344 187.5 14.402344 Z M 187.5 14.402344 " clip-rule="nonzero"/></clipPath></defs><g clip-path="url(#ea621921cd)"><g clip-path="url(#98d173f9db)"><path fill="#000000" d="M 3.363281 3.363281 L 371.636719 3.363281 L 371.636719 371.636719 L 3.363281 371.636719 Z M 3.363281 3.363281 " fill-opacity="1" fill-rule="nonzero"/></g></g><g fill="#000000" fill-opacity="1"><g transform="translate(60.64207, 229.169581)"><g><path d="M 11.171875 -90.953125 L 21.3125 -90.953125 L 65.609375 -26.890625 L 65.609375 -90.953125 L 78.609375 -90.953125 L 78.609375 0 L 68.203125 0 L 24.296875 -63.53125 L 24.296875 0 L 11.171875 0 Z M 11.171875 -90.953125 "/></g></g></g><g fill="#000000" fill-opacity="1"><g transform="translate(224.607748, 229.169581)"><g><path d="M 44.296875 -46.125 C 48.023438 -46.125 51.101562 -46.898438 53.53125 -48.453125 C 55.957031 -50.015625 57.773438 -52.007812 58.984375 -54.4375 C 60.191406 -56.863281 60.796875 -59.375 60.796875 -61.96875 C 60.796875 -64.570312 60.191406 -67.171875 58.984375 -69.765625 C 57.773438 -72.367188 55.957031 -74.535156 53.53125 -76.265625 C 51.101562 -77.992188 48.023438 -78.859375 44.296875 -78.859375 L 24.171875 -78.859375 L 24.171875 0 L 11.171875 0 L 11.171875 -92.109375 L 44.296875 -92.109375 C 49.234375 -92.109375 53.5625 -91.21875 57.28125 -89.4375 C 61.007812 -87.664062 64.109375 -85.328125 66.578125 -82.421875 C 69.046875 -79.523438 70.882812 -76.300781 72.09375 -72.75 C 73.3125 -69.195312 73.921875 -65.601562 73.921875 -61.96875 C 73.921875 -57.726562 73.054688 -53.632812 71.328125 -49.6875 C 69.597656 -45.75 66.976562 -42.414062 63.46875 -39.6875 C 59.957031 -36.957031 55.601562 -35.117188 50.40625 -34.171875 L 79.125 0 L 62.109375 0 L 28.96875 -39.890625 L 28.96875 -46.125 Z M 44.296875 -46.125 "/></g></g></g><path stroke-linecap="butt" transform="matrix(0, -1.728352, 1.728352, 0, 181.448753, 261.1305)" fill="none" stroke-linejoin="miter" d="M 0.00092192 3.498905 L 85.204447 3.498905 " stroke="#000000" stroke-width="7" stroke-opacity="1" stroke-miterlimit="4"/></svg>